<svg width="32" height="32" viewBox="0 0 32 32" fill="none" xmlns="http://www.w3.org/2000/svg">
  <circle cx="16" cy="16" r="16" fill="#06C755"/>
  <path d="M27 15.22C27 10.19 22.05 6.1 16 6.1C9.95 6.1 5 10.19 5 15.22C5 19.74 8.92 23.52 14.25 24.15C14.63 24.23 15.16 24.4 15.31 24.73C15.44 25.03 15.4 25.51 15.35 25.81C15.35 25.81 15.19 26.6 15.17 26.76C15.12 27.06 14.95 28 16 27.5C17.05 27.01 22.82 23.53 25.37 20.64C27.01 18.81 27 16.92 27 15.22Z" fill="white"/>
  <path d="M13.73 13.63H13.01C12.86 13.63 12.74 13.75 12.74 13.9V18.09C12.74 18.24 12.86 18.36 13.01 18.36H13.73C13.88 18.36 14 18.24 14 18.09V13.9C14 13.75 13.88 13.63 13.73 13.63Z" fill="#06C755"/>
  <path d="M19.28 13.63H18.56C18.41 13.63 18.29 13.75 18.29 13.9V16.32L16.35 13.75C16.35 13.74 16.34 13.74 16.34 13.73C16.33 13.72 16.33 13.72 16.32 13.71C16.32 13.7 16.31 13.7 16.31 13.69C16.3 13.69 16.3 13.68 16.29 13.68C16.29 13.68 16.28 13.67 16.28 13.67C16.27 13.67 16.27 13.66 16.26 13.66C16.25 13.66 16.25 13.65 16.24 13.65C16.24 13.65 16.23 13.65 16.23 13.64C16.22 13.64 16.22 13.64 16.21 13.64C16.2 13.64 16.2 13.63 16.19 13.63C16.19 13.63 16.18 13.63 16.18 13.63C16.17 13.63 16.17 13.63 16.16 13.63C16.15 13.63 16.15 13.63 16.14 13.63H15.43C15.28 13.63 15.16 13.75 15.16 13.9V18.09C15.16 18.24 15.28 18.36 15.43 18.36H16.14C16.29 18.36 16.41 18.24 16.41 18.09V15.67L18.36 18.25C18.39 18.29 18.43 18.32 18.47 18.34C18.5 18.35 18.53 18.36 18.56 18.36H19.28C19.43 18.36 19.55 18.24 19.55 18.09V13.9C19.55 13.75 19.43 13.63 19.28 13.63Z" fill="#06C755"/>
  <path d="M12.19 17.1H10.26V13.9C10.26 13.75 10.14 13.63 9.99 13.63H9.27C9.12 13.63 9 13.75 9 13.9V18.09V18.09C9 18.16 9.03 18.23 9.08 18.28C9.12 18.33 9.19 18.36 9.27 18.36H12.19C12.34 18.36 12.46 18.24 12.46 18.09V17.37C12.46 17.22 12.34 17.1 12.19 17.1Z" fill="#06C755"/>
  <path d="M22.73 14.89C22.88 14.89 23 14.77 23 14.62V13.9C23 13.75 22.88 13.63 22.73 13.63H19.81H19.81C19.74 13.63 19.67 13.66 19.62 13.71C19.57 13.76 19.54 13.82 19.54 13.9V18.09V18.09C19.54 18.16 19.57 18.23 19.62 18.28C19.67 18.33 19.74 18.36 19.81 18.36H22.73C22.88 18.36 23 18.24 23 18.09V17.37C23 17.22 22.88 17.1 22.73 17.1H20.81V16.49H22.73C22.88 16.49 23 16.37 23 16.22V15.5C23 15.35 22.88 15.23 22.73 15.23H20.81V14.89H22.73Z" fill="#06C755"/>
</svg>
